<svg width="45" height="45" viewBox="0 0 45 45" fill="none" xmlns="http://www.w3.org/2000/svg">
<path d="M18 6.22512C16.5678 6.22513 15.1677 6.65008 13.9771 7.44617C12.7865 8.24227 11.8589 9.37373 11.3116 10.6973C10.7644 12.0209 10.6222 13.4771 10.903 14.8815C11.1838 16.2859 11.8749 17.5755 12.889 18.5869C13.903 19.5984 15.1944 20.2862 16.5996 20.5633C18.0047 20.8405 19.4605 20.6945 20.7827 20.1438C22.1048 19.5931 23.2339 18.6626 24.0269 17.4699C24.8199 16.2772 25.2412 14.8761 25.2375 13.4439C25.2375 12.4943 25.0502 11.5541 24.6862 10.677C24.3223 9.8 23.7889 9.00337 23.1166 8.3328C22.4442 7.66224 21.6462 7.1309 20.7683 6.76923C19.8903 6.40755 18.9496 6.22266 18 6.22512ZM30.6563 20.6251C30.5449 20.6273 30.4376 20.6676 30.3524 20.7392C30.2671 20.8109 30.2089 20.9096 30.1875 21.0189L29.85 23.4001C29.3103 23.6287 28.7952 23.9114 28.3125 24.2439L26.0625 23.3439C25.9552 23.3257 25.845 23.3391 25.7451 23.3824C25.6453 23.4256 25.5601 23.4969 25.5 23.5876L23.625 26.7001C23.5703 26.7942 23.5515 26.905 23.5722 27.0119C23.5929 27.1187 23.6516 27.2145 23.7375 27.2814L25.6125 28.7626C25.5329 29.3851 25.5329 30.0152 25.6125 30.6376L23.7375 32.1189C23.653 32.1825 23.5949 32.275 23.5742 32.3787C23.5534 32.4824 23.5715 32.5901 23.625 32.6814L25.5 35.8126C25.6125 36.0564 25.8563 36.0564 26.0625 36.0564L28.3125 35.1376C28.7878 35.4869 29.3042 35.7765 29.85 36.0001L30.1875 38.3814C30.2058 38.4906 30.2637 38.5893 30.3502 38.6585C30.4367 38.7276 30.5457 38.7625 30.6563 38.7564H34.275C34.3792 38.7535 34.4791 38.7145 34.5578 38.6461C34.6364 38.5777 34.6889 38.4842 34.7063 38.3814L35.0438 36.0001C35.5757 35.7605 36.0842 35.4718 36.5625 35.1376L38.7938 36.0564C39.0188 36.0564 39.2625 36.0564 39.3938 35.8126L41.2688 32.6814C41.3222 32.5901 41.3403 32.4824 41.3196 32.3787C41.2988 32.275 41.2407 32.1825 41.1563 32.1189L39.2813 30.6376C39.3 30.3317 39.3 30.0248 39.2813 29.7189C39.3083 29.4195 39.3083 29.1183 39.2813 28.8189L41.1563 27.3376C41.239 27.2685 41.2954 27.1729 41.3159 27.067C41.3364 26.9611 41.3197 26.8514 41.2688 26.7564L39.3938 23.6439C39.2813 23.4001 39.0375 23.4001 38.8125 23.4001L36.5625 24.3751C36.0841 24.0357 35.5682 23.7526 35.025 23.5314L34.6875 21.1501C34.6785 21.0455 34.6316 20.9478 34.5556 20.8753C34.4797 20.8028 34.3799 20.7605 34.275 20.7564H30.8625M18.2063 24.3751C10.2188 24.3751 3.75 27.5626 3.75 31.5564V35.1564H21.2438C20.4545 33.4888 20.0451 31.6669 20.0451 29.822C20.0451 27.9771 20.4545 26.1552 21.2438 24.4876C20.2344 24.3896 19.2201 24.352 18.2063 24.3751ZM32.4563 27.0564C32.831 27.0252 33.2081 27.0721 33.5638 27.194C33.9196 27.316 34.2461 27.5105 34.5228 27.7651C34.7995 28.0198 35.0204 28.329 35.1715 28.6734C35.3226 29.0177 35.4006 29.3897 35.4006 29.7657C35.4006 30.1418 35.3226 30.5137 35.1715 30.8581C35.0204 31.2025 34.7995 31.5117 34.5228 31.7664C34.2461 32.021 33.9196 32.2155 33.5638 32.3375C33.2081 32.4594 32.831 32.5063 32.4563 32.4751C31.7766 32.4185 31.143 32.1086 30.6812 31.6067C30.2194 31.1049 29.9631 30.4478 29.9631 29.7657C29.9631 29.0837 30.2194 28.4266 30.6812 27.9248C31.143 27.4229 31.7766 27.113 32.4563 27.0564Z" fill="white"/>
</svg>
