<svg width="43" height="43" viewBox="0 0 43 43" fill="none" xmlns="http://www.w3.org/2000/svg">
<g clip-path="url(#clip0_53_649)">
<path d="M37.8193 15.3892H26.2167V15.7144C26.2167 18.3152 24.1009 20.4312 21.5 20.4312C18.8993 20.4312 16.7833 18.3153 16.7833 15.7144V15.3892H5.18074C2.32402 15.3892 0 17.7134 0 20.57V22.2795C0 24.5408 1.45631 26.4685 3.48034 27.1738L4.59961 38.1432C4.92477 40.7283 7.13484 42.6777 9.74013 42.6777H33.2601C35.8654 42.6777 38.0755 40.7283 38.4006 38.1432L39.5199 27.1738C41.5437 26.4685 43 24.5408 43 22.2795V20.57C43 17.7134 40.676 15.3892 37.8193 15.3892ZM15.2358 35.3142C15.2358 36.3027 14.4345 37.1038 13.446 37.1038C12.4575 37.1038 11.6562 36.3027 11.6562 35.3142V28.2446C11.6562 27.2563 12.4575 26.4548 13.446 26.4548C14.4343 26.4548 15.2358 27.2563 15.2358 28.2446V35.3142ZM23.2898 35.3142C23.2898 36.3027 22.4884 37.1038 21.5 37.1038C20.5116 37.1038 19.7102 36.3027 19.7102 35.3142V28.2446C19.7102 27.2563 20.5116 26.4548 21.5 26.4548C22.4884 26.4548 23.2898 27.2563 23.2898 28.2446V35.3142ZM31.3438 35.3142C31.3438 36.3027 30.5425 37.1038 29.554 37.1038C28.5657 37.1038 27.7642 36.3027 27.7642 35.3142V28.2446C27.7642 27.2563 28.5655 26.4548 29.554 26.4548C30.5425 26.4548 31.3438 27.2563 31.3438 28.2446V35.3142Z" fill="white"/>
<path d="M21.4993 18.534C23.0566 18.534 24.319 17.2716 24.319 15.7144V3.14193C24.319 1.5847 23.0566 0.322266 21.4993 0.322266C19.9421 0.322266 18.6797 1.5847 18.6797 3.14193V15.7144C18.6797 17.2716 19.9421 18.534 21.4993 18.534Z" fill="white"/>
</g>
<defs>
<clipPath id="clip0_53_649">
<rect width="43" height="43" fill="white"/>
</clipPath>
</defs>
</svg>
