<svg width="43" height="43" viewBox="0 0 43 43" fill="none" xmlns="http://www.w3.org/2000/svg">
<g clip-path="url(#clip0_53_655)">
<path fill-rule="evenodd" clip-rule="evenodd" d="M32.2506 3.58325C35.2193 3.58325 37.6256 5.98973 37.6256 8.95825V32.2499C37.6256 35.2185 35.2193 37.6249 32.2506 37.6249H26.8756V26.8749C26.8756 23.9063 24.4693 21.4999 21.5006 21.4999H19.709C16.7405 21.4999 14.334 23.9063 14.334 26.8749V37.6249H8.95898C5.99046 37.6249 3.58398 35.2185 3.58398 32.2499V8.95825C3.58398 5.98973 5.99046 3.58325 8.95898 3.58325H32.2506ZM21.5006 25.0833C22.4195 25.0833 23.1768 25.7749 23.2803 26.666L23.2923 26.8749V37.6249H17.9173V26.8749C17.9173 25.9561 18.6089 25.1988 19.5 25.0953L19.709 25.0833H21.5006ZM32.2506 7.16658H8.95898C8.04016 7.16658 7.28287 7.85825 7.17937 8.74931L7.16732 8.95825V10.7499C7.16732 12.7289 8.77163 14.3333 10.7507 14.3333C12.4259 14.3333 13.8354 13.1821 14.2261 11.6277L14.2844 11.3493C14.4223 10.5271 15.0997 9.93033 15.8933 9.86062L16.1257 9.85408C17.0445 9.85408 17.8018 10.5457 17.9053 11.4368L17.9173 11.6458C17.9173 13.13 19.1206 14.3333 20.6048 14.3333C22.0017 14.3333 23.1498 13.2674 23.28 11.9046L23.2923 11.6458C23.2923 10.7269 23.9839 9.96964 24.875 9.86614L25.1157 9.85435C25.9257 9.83411 26.6549 10.3661 26.8798 11.1486L26.9253 11.3493C27.2094 13.0427 28.6852 14.3333 30.459 14.3333C32.3481 14.3333 33.8957 12.8715 34.0325 11.0173L34.0423 10.7499V8.95825C34.0423 8.03943 33.3507 7.28214 32.4596 7.17864L32.2506 7.16658Z" fill="white"/>
</g>
<defs>
<clipPath id="clip0_53_655">
<rect width="43" height="43" fill="white"/>
</clipPath>
</defs>
</svg>
