<svg width="43" height="43" viewBox="0 0 43 43" fill="none" xmlns="http://www.w3.org/2000/svg">
<g clip-path="url(#clip0_53_653)">
<path d="M40.3376 2.43332C36.954 -0.950196 31.2831 -0.7848 27.6958 2.80239C26.9359 3.56239 26.3313 4.41639 25.8798 5.32171L23.4711 5.52106C22.7679 5.57932 22.1081 5.88498 21.6091 6.3839L1.10165 26.8912C-0.0625307 28.0554 -0.0625307 29.9428 1.10165 31.107L12.1217 42.127C13.2858 43.2911 15.1732 43.2913 16.3374 42.1271L36.8447 21.6198C37.3438 21.1208 37.6493 20.461 37.7077 19.7578L37.9679 16.6131C38.6931 16.193 39.3639 15.6797 39.9685 15.0751C43.5557 11.4878 43.7212 5.81695 40.3376 2.43332ZM38.2217 13.5456L38.7018 7.74345C38.774 6.8702 38.4583 6.00968 37.8387 5.38995C37.2191 4.77021 36.3582 4.45467 35.4852 4.5269L31.7934 4.83235C31.5943 4.99165 31.4025 5.16115 31.2206 5.34295C29.4629 7.10079 28.8518 9.54619 29.4274 11.6516C29.9048 11.8287 30.353 12.1081 30.7368 12.4918C32.1618 13.9167 32.1616 16.2271 30.7368 17.6522C29.3117 19.0772 27.0014 19.0772 25.5764 17.6522C24.1862 16.2621 24.1528 14.0303 25.4745 12.5988C25.8793 13.642 26.4953 14.6122 27.3268 15.4439C27.7787 15.8956 28.5108 15.8956 28.9626 15.4439C29.4144 14.9922 29.4144 14.2598 28.9626 13.8081C26.4809 11.3264 26.6465 7.12298 29.3315 4.43795C32.0168 1.75281 36.2203 1.58731 38.7018 4.06888C41.1835 6.55056 41.0179 10.754 38.3328 13.4391C38.2965 13.4757 38.2588 13.51 38.2217 13.5456Z" fill="white"/>
</g>
<defs>
<clipPath id="clip0_53_653">
<rect width="43" height="43" fill="white"/>
</clipPath>
</defs>
</svg>
