<svg width="45" height="45" viewBox="0 0 45 45" fill="none" xmlns="http://www.w3.org/2000/svg">
<g clip-path="url(#clip0_1_447)">
<path d="M31.7278 25.2319L22.5 33.75L13.2722 25.2319C8.13187 28.5197 4.6875 34.4522 4.6875 41.25H40.3125C40.3125 34.4522 36.8681 28.5197 31.7278 25.2319Z" fill="white"/>
<path d="M22.5 26.25C25.8281 26.25 28.8084 24.7969 30.8681 22.5C32.6541 20.5087 33.75 17.8856 33.75 15C33.75 8.78719 28.7128 3.75 22.5 3.75C16.2872 3.75 11.25 8.78719 11.25 15C11.25 17.8856 12.3459 20.5087 14.1319 22.5C16.1916 24.7969 19.1719 26.25 22.5 26.25Z" fill="white"/>
</g>
<defs>
<clipPath id="clip0_1_447">
<rect width="45" height="45" fill="white"/>
</clipPath>
</defs>
</svg>
