<svg width="21" height="21" viewBox="0 0 21 21" fill="none" xmlns="http://www.w3.org/2000/svg">
<path fill-rule="evenodd" clip-rule="evenodd" d="M2.15658 15.5562L0.787827 19.2062C0.735267 19.3467 0.72425 19.4993 0.756091 19.6459C0.787932 19.7924 0.861285 19.9267 0.96739 20.0327C1.0735 20.1387 1.20787 20.2119 1.35446 20.2436C1.50105 20.2753 1.65366 20.2641 1.79408 20.2114L5.44303 18.8427C5.86068 18.6863 6.24002 18.4423 6.55553 18.1271L17.1253 7.55727C17.1253 7.55727 16.7566 6.45206 15.6524 5.34686C14.5482 4.24269 13.442 3.87394 13.442 3.87394L2.8722 14.4437C2.55701 14.7593 2.313 15.1386 2.15658 15.5562ZM14.916 2.39998L16.3566 0.959356C16.6149 0.701022 16.9597 0.536439 17.3201 0.596856C17.8274 0.680189 18.6035 0.932272 19.3347 1.66456C20.067 2.39686 20.3191 3.17186 20.4024 3.67915C20.4628 4.03956 20.2982 4.38436 20.0399 4.64269L18.5982 6.08331C18.5982 6.08331 18.2305 4.97915 17.1253 3.87498C16.0212 2.76873 14.916 2.39998 14.916 2.39998Z" fill="white"/>
</svg>
