<svg width="45" height="45" viewBox="0 0 45 45" fill="none" xmlns="http://www.w3.org/2000/svg">
<g clip-path="url(#clip0_1_438)">
<path fill-rule="evenodd" clip-rule="evenodd" d="M26.2371 6.43814C24.1058 4.54369 20.8943 4.54369 18.7629 6.43814L4.37935 19.2236C3.60537 19.9115 3.53566 21.0967 4.22363 21.8707C4.91161 22.6445 6.09674 22.7143 6.8707 22.0264L7.50002 21.467V31.9984C7.49993 33.6605 7.49985 35.0927 7.65404 36.2396C7.81928 37.4687 8.19194 38.6469 9.14755 39.6024C10.1032 40.5581 11.2813 40.9307 12.5104 41.096C13.6573 41.2502 15.0894 41.25 16.7516 41.25H28.2484C29.9106 41.25 31.3427 41.2502 32.4896 41.096C33.7187 40.9307 34.8969 40.5581 35.8524 39.6024C36.8081 38.6469 37.1807 37.4687 37.3461 36.2396C37.5002 35.0927 37.5002 33.6606 37.5 31.9986V21.467L38.1293 22.0264C38.9033 22.7143 40.0884 22.6445 40.7764 21.8707C41.4643 21.0967 41.3948 19.9115 40.6208 19.2236L26.2371 6.43814ZM22.5 30C21.4644 30 20.625 30.8394 20.625 31.875V35.625C20.625 36.6605 19.7856 37.5 18.75 37.5C17.7145 37.5 16.875 36.6605 16.875 35.625V31.875C16.875 28.7683 19.3933 26.25 22.5 26.25C25.6067 26.25 28.125 28.7683 28.125 31.875V35.625C28.125 36.6605 27.2856 37.5 26.25 37.5C25.2144 37.5 24.375 36.6605 24.375 35.625V31.875C24.375 30.8394 23.5356 30 22.5 30Z" fill="white"/>
</g>
<defs>
<clipPath id="clip0_1_438">
<rect width="45" height="45" fill="white"/>
</clipPath>
</defs>
</svg>
