<svg width="25" height="25" viewBox="0 0 25 25" fill="none" xmlns="http://www.w3.org/2000/svg">
<path d="M12.5 2.34375C8.20312 2.34375 4.6875 5.85938 4.6875 10.1562C4.6875 16.7188 11.7187 22.2656 12.0312 22.5C12.1875 22.5781 12.3438 22.6562 12.5 22.6562C12.6562 22.6562 12.8125 22.5781 12.9688 22.5C13.2812 22.2656 20.3125 16.7188 20.3125 10.1562C20.3125 5.85938 16.7969 2.34375 12.5 2.34375ZM12.5 13.2812C10.7812 13.2812 9.375 11.875 9.375 10.1562C9.375 8.4375 10.7812 7.03125 12.5 7.03125C14.2188 7.03125 15.625 8.4375 15.625 10.1562C15.625 11.875 14.2188 13.2812 12.5 13.2812Z" fill="white"/>
</svg>
