<svg width="219" height="90" viewBox="0 0 219 90" fill="none" xmlns="http://www.w3.org/2000/svg">
<mask id="mask0_3_563" style="mask-type:luminance" maskUnits="userSpaceOnUse" x="12" y="15" width="74" height="33">
<path d="M12.7585 15.5865H85.3615V47.908H12.7585V15.5865Z" fill="white"/>
</mask>
<g mask="url(#mask0_3_563)">
<path d="M13.1818 47.5174H25.1655L34.5978 35.2349H22.617L13.1818 47.5174ZM73.585 15.5835L48.5112 47.5174H60.4949L85.5688 15.5835H73.585ZM49.5796 23.6075L30.8465 47.5174H42.8273L61.5604 23.6075H49.5796Z" fill="#FF914D"/>
</g>
<mask id="mask1_3_563" style="mask-type:luminance" maskUnits="userSpaceOnUse" x="5" y="47" width="74" height="33">
<path d="M5.76969 47.1387H78.5245V79.4512H5.76969V47.1387Z" fill="white"/>
</mask>
<g mask="url(#mask1_3_563)">
<path d="M78.1596 47.5174H66.1759L56.7436 59.7998H68.7244L78.1596 47.5174ZM17.7534 79.4512L42.8273 47.5174H30.8465L5.77261 79.4512H17.7534ZM41.7618 71.4272L60.492 47.5174H48.5112L29.7809 71.4272H41.7618Z" fill="#F6F6F6"/>
</g>
<path d="M113.458 14.6691H118.584V40.8509H113.177V23.5646L107.105 32.316H102.773L96.6309 23.8291V40.8509H91.1776V14.6691H96.3506L104.957 26.7382L113.458 14.6691Z" fill="#FF914D"/>
<path d="M139.794 22.5308V40.8509H135.52L135.018 38.8915C134.323 39.8531 133.491 40.4963 132.519 40.8148C131.553 41.1334 130.545 41.2957 129.494 41.2957C128.224 41.2957 127.057 41.0432 125.991 40.5383C124.932 40.0335 124.006 39.3452 123.212 38.4707C122.424 37.5992 121.811 36.5774 121.367 35.4054C120.923 34.2363 120.701 32.9861 120.701 31.6548C120.701 30.3265 120.923 29.0763 121.367 27.9042C121.811 26.7352 122.424 25.7134 123.212 24.8389C124.006 23.9673 124.932 23.2761 125.991 22.7713C127.057 22.2664 128.224 22.0139 129.494 22.0139C130.639 22.0139 131.69 22.2003 132.647 22.5669C133.605 22.9365 134.393 23.5286 135.018 24.346L135.52 22.5308H139.794ZM134.843 31.7269C134.843 30.7652 134.714 29.9598 134.457 29.3107C134.206 28.6616 133.873 28.1326 133.453 27.7239C133.038 27.3152 132.548 27.0207 131.982 26.8344C131.421 26.651 130.817 26.5579 130.172 26.5579C129.524 26.5579 128.922 26.6961 128.362 26.9666C127.801 27.2401 127.302 27.6037 126.867 28.0605C126.438 28.5113 126.102 29.0522 125.863 29.6833C125.629 30.3084 125.512 30.9666 125.512 31.6548C125.512 32.37 125.629 33.0342 125.863 33.6503C126.102 34.2694 126.438 34.8043 126.867 35.2611C127.302 35.7119 127.801 36.0725 128.362 36.343C128.922 36.6165 129.524 36.7517 130.172 36.7517C131.462 36.7517 132.557 36.34 133.453 35.5135C134.355 34.6901 134.819 33.4279 134.843 31.7269Z" fill="#FF914D"/>
<path d="M147.143 25.0793C147.382 24.6886 147.659 24.316 147.972 23.9613C148.281 23.6007 148.652 23.2822 149.081 22.9997C149.507 22.7112 149.998 22.4828 150.552 22.3145C151.104 22.1402 151.726 22.05 152.421 22.05C153.229 22.05 154.172 22.2003 155.247 22.4948L154.779 27.0387C154.523 26.9906 154.26 26.9305 153.997 26.8584C153.778 26.8103 153.536 26.7683 153.273 26.7262C153.016 26.6871 152.777 26.6661 152.561 26.6661C151.796 26.6661 151.084 26.7803 150.424 27.0027C149.77 27.2281 149.201 27.5376 148.719 27.9283C148.243 28.322 147.861 28.7938 147.575 29.3468C147.286 29.8997 147.143 30.4978 147.143 31.1379V40.8509H142.191V22.5308H146.675L147.143 25.0793Z" fill="#FF914D"/>
<path d="M166.191 30.1402L173.687 40.8509H167.767L163.073 33.5421L161.31 35.5015V40.8509H156.358V13.8877H161.31V28.8539L167.09 22.5308H173.115L166.191 30.1402Z" fill="#FF914D"/>
<path d="M183.626 22.0139C184.963 22.0139 186.184 22.2964 187.281 22.8554C188.385 23.4084 189.331 24.1356 190.119 25.0312C190.904 25.9298 191.511 26.9636 191.941 28.1326C192.376 29.3047 192.595 30.5008 192.595 31.7269C192.595 32.4662 192.495 33.2536 192.303 34.0951H179.609C180.082 34.9305 180.766 35.6398 181.653 36.2228C182.54 36.7998 183.498 37.0883 184.526 37.0883C185.553 37.0883 186.452 37.0042 187.223 36.8359C188 36.6616 188.741 36.4362 189.442 36.1627L191.088 39.3002C190.201 39.9433 189.188 40.4362 188.052 40.7788C186.914 41.1214 185.699 41.2957 184.409 41.2957C182.999 41.2957 181.682 41.0432 180.462 40.5383C179.247 40.0335 178.185 39.3543 177.274 38.4948C176.363 37.6292 175.642 36.6075 175.114 35.4294C174.591 34.2453 174.331 32.9861 174.331 31.6548C174.331 30.3505 174.568 29.1123 175.044 27.9403C175.525 26.7713 176.191 25.7495 177.041 24.8749C177.887 24.0034 178.874 23.3092 179.995 22.7953C181.122 22.2754 182.333 22.0139 183.626 22.0139ZM187.678 30.1401C187.389 29.0823 186.876 28.2228 186.137 27.5556C185.396 26.8915 184.561 26.5579 183.626 26.5579C182.669 26.5579 181.799 26.8915 181.022 27.5556C180.243 28.2228 179.709 29.0823 179.423 30.1401H187.678Z" fill="#FF914D"/>
<path d="M202.023 34.2754C202.023 35.1409 202.28 35.8081 202.793 36.2709C203.313 36.7367 203.99 36.9681 204.825 36.9681C205.494 36.9681 206.162 36.8359 206.834 36.5714V40.8509C206.232 41.0492 205.599 41.2145 204.93 41.3438C204.259 41.479 203.59 41.5481 202.922 41.5481C202.157 41.5481 201.43 41.4459 200.738 41.2476C200.043 41.0552 199.422 40.7187 198.87 40.2378C198.315 39.757 197.877 39.1199 197.55 38.3265C197.229 37.5271 197.072 36.5323 197.072 35.3453V27.0748H194.526V23.6368L197.072 22.5308V18.4317H202.023V22.5308H206.834V27.0748H202.023V34.2754Z" fill="#FF914D"/>
<path d="M107.105 58.4032C108.11 59.1184 108.909 60.035 109.511 61.156C110.109 62.28 110.41 63.5181 110.41 64.8705C110.41 65.9524 110.206 66.9712 109.803 67.9238C109.397 68.8705 108.845 69.6969 108.145 70.4002C107.45 71.0974 106.644 71.6504 105.727 72.0591C104.808 72.4618 103.824 72.6601 102.773 72.6601H91.2127V46.4783H102.411C103.369 46.4783 104.262 46.6707 105.097 47.0553C105.938 47.434 106.673 47.9419 107.304 48.582C107.94 49.2251 108.439 49.9765 108.799 50.842C109.155 51.7015 109.336 52.6211 109.336 53.6068C109.336 54.6647 109.137 55.5963 108.74 56.3957C108.343 57.1981 107.797 57.8683 107.105 58.4032ZM96.6659 56.2995H102.411C103.056 56.2995 103.605 56.0681 104.058 55.6023C104.516 55.1305 104.747 54.5625 104.747 53.8953C104.747 53.2311 104.516 52.6782 104.058 52.2364C103.605 51.7976 103.056 51.5752 102.411 51.5752H96.6659V56.2995ZM102.773 67.5993C103.488 67.5993 104.096 67.2867 104.595 66.6616C105.1 66.0305 105.354 65.2973 105.354 64.4618C105.354 63.5963 105.1 62.872 104.595 62.286C104.096 61.6939 103.488 61.3964 102.773 61.3964H96.6659V67.5993H102.773Z" fill="#F6F6F6"/>
<path d="M131.22 54.3401V72.6601H126.946L126.444 70.7007C125.749 71.6624 124.917 72.3055 123.945 72.6241C122.979 72.9426 121.972 73.1049 120.921 73.1049C119.651 73.1049 118.483 72.8525 117.418 72.3476C116.358 71.8427 115.433 71.1545 114.639 70.28C113.85 69.4084 113.237 68.3866 112.794 67.2146C112.35 66.0455 112.128 64.7954 112.128 63.464C112.128 62.1357 112.35 60.8855 112.794 59.7135C113.237 58.5444 113.85 57.5226 114.639 56.6481C115.433 55.7766 116.358 55.0854 117.418 54.5805C118.483 54.0756 119.651 53.8232 120.921 53.8232C122.065 53.8232 123.116 54.0095 124.074 54.3761C125.031 54.7458 125.819 55.3378 126.444 56.1552L126.946 54.3401H131.22ZM126.269 63.5362C126.269 62.5745 126.141 61.7691 125.884 61.1199C125.633 60.4708 125.3 59.9419 124.879 59.5332C124.465 59.1244 123.974 58.8299 123.408 58.6436C122.848 58.4603 122.243 58.3671 121.598 58.3671C120.95 58.3671 120.349 58.5054 119.788 58.7758C119.228 59.0493 118.729 59.4129 118.294 59.8697C117.864 60.3205 117.529 60.8615 117.289 61.4926C117.056 62.1177 116.939 62.7758 116.939 63.464C116.939 64.1793 117.056 64.8434 117.289 65.4595C117.529 66.0786 117.864 66.6135 118.294 67.0703C118.729 67.5211 119.228 67.8818 119.788 68.1522C120.349 68.4257 120.95 68.5609 121.598 68.5609C122.889 68.5609 123.983 68.1492 124.879 67.3228C125.782 66.4993 126.246 65.2371 126.269 63.5362Z" fill="#F6F6F6"/>
<path d="M144.992 63.0553C146.305 64.017 146.965 65.3844 146.965 67.1545C146.965 67.9719 146.778 68.7383 146.404 69.4505C146.037 70.1658 145.532 70.7939 144.886 71.3378C144.238 71.8757 143.485 72.2995 142.621 72.612C141.763 72.9156 140.846 73.0688 139.865 73.0688C139.118 73.0688 138.388 72.9667 137.682 72.7683C136.981 72.576 136.33 72.3085 135.731 71.9629C135.139 71.6203 134.622 71.2056 134.178 70.7247C133.735 70.2439 133.402 69.709 133.186 69.1139C133.738 68.8434 134.348 68.5429 135.019 68.2123C135.688 67.8758 136.272 67.5752 136.771 67.3108C136.987 67.6804 137.323 68.017 137.775 68.3205C138.233 68.6271 138.855 68.7773 139.643 68.7773C140.461 68.7773 141.059 68.582 141.442 68.1883C141.821 67.7976 142.014 67.428 142.014 67.0824C142.014 66.8359 141.88 66.6075 141.617 66.3972C141.351 66.1898 141.05 66.0245 140.718 65.9043C140.242 65.706 139.848 65.6008 139.538 65.5918C139.226 65.5767 138.867 65.5076 138.464 65.3874C137.171 65.0688 136.181 64.6421 135.498 64.1132C134.821 63.5842 134.324 63.0523 134.015 62.5144C133.703 61.9704 133.527 61.4535 133.489 60.9637C133.457 60.4678 133.443 60.0711 133.443 59.7736C133.443 58.9892 133.609 58.2409 133.945 57.5256C134.278 56.8044 134.739 56.1793 135.323 55.6504C135.907 55.1214 136.587 54.6977 137.366 54.3761C138.143 54.0576 138.978 53.8953 139.865 53.8953C140.604 53.8953 141.307 54.0095 141.979 54.2319C142.647 54.4573 143.255 54.7668 143.8 55.1575C144.352 55.5512 144.828 56.02 145.225 56.564C145.622 57.1019 145.914 57.703 146.101 58.3671L142.259 59.7015C142.119 59.2537 141.827 58.896 141.383 58.6316C140.94 58.3611 140.467 58.2229 139.97 58.2229C139.462 58.2229 139.054 58.3972 138.744 58.7398C138.432 59.0854 138.277 59.431 138.277 59.7736C138.277 60.1913 138.423 60.5159 138.721 60.7473C139.024 60.9817 139.354 61.15 139.713 61.2522C139.976 61.3002 140.233 61.3453 140.484 61.3844C140.741 61.4175 140.986 61.4565 141.22 61.5046C142.061 61.706 142.785 61.9314 143.392 62.1778C144.005 62.4182 144.539 62.7127 144.992 63.0553Z" fill="#F6F6F6"/>
<path d="M157.655 53.8232C158.992 53.8232 160.212 54.1057 161.31 54.6646C162.413 55.2176 163.359 55.9449 164.147 56.8404C164.933 57.739 165.54 58.7728 165.969 59.9419C166.404 61.1139 166.623 62.31 166.623 63.5362C166.623 64.2754 166.524 65.0628 166.331 65.9043H153.638C154.111 66.7398 154.794 67.449 155.681 68.032C156.569 68.609 157.526 68.8975 158.554 68.8975C159.582 68.8975 160.481 68.8134 161.251 68.6451C162.028 68.4708 162.77 68.2454 163.47 67.9719L165.117 71.1094C164.229 71.7525 163.216 72.2454 162.081 72.588C160.942 72.9306 159.728 73.1049 158.437 73.1049C157.027 73.1049 155.711 72.8525 154.49 72.3476C153.276 71.8427 152.213 71.1635 151.303 70.304C150.392 69.4385 149.671 68.4167 149.142 67.2386C148.62 66.0546 148.36 64.7954 148.36 63.464C148.36 62.1597 148.596 60.9216 149.072 59.7495C149.554 58.5805 150.219 57.5587 151.069 56.6842C151.916 55.8126 152.902 55.1184 154.023 54.6045C155.15 54.0846 156.362 53.8232 157.655 53.8232ZM161.707 61.9494C161.418 60.8915 160.904 60.032 160.165 59.3649C159.424 58.7007 158.589 58.3671 157.655 58.3671C156.697 58.3671 155.827 58.7007 155.051 59.3649C154.271 60.032 153.737 60.8915 153.451 61.9494H161.707Z" fill="#F6F6F6"/>
</svg>
