<svg width="219" height="90" viewBox="0 0 219 90" fill="none" xmlns="http://www.w3.org/2000/svg">
<mask id="mask0_9_902" style="mask-type:luminance" maskUnits="userSpaceOnUse" x="12" y="15" width="74" height="33">
<path d="M12.7583 15.5864H85.3613V47.908H12.7583V15.5864Z" fill="white"/>
</mask>
<g mask="url(#mask0_9_902)">
<path d="M13.1816 47.5174H25.1654L34.5976 35.2349H22.6168L13.1816 47.5174ZM73.5849 15.5835L48.511 47.5174H60.4948L85.5686 15.5835H73.5849ZM49.5795 23.6075L30.8463 47.5174H42.8271L61.5603 23.6075H49.5795Z" fill="#FF914D"/>
</g>
<mask id="mask1_9_902" style="mask-type:luminance" maskUnits="userSpaceOnUse" x="5" y="47" width="74" height="33">
<path d="M5.76953 47.1387H78.5244V79.4512H5.76953V47.1387Z" fill="white"/>
</mask>
<g mask="url(#mask1_9_902)">
<path d="M78.1594 47.5173H66.1757L56.7435 59.7998H68.7243L78.1594 47.5173ZM17.7533 79.4512L42.8271 47.5173H30.8463L5.77246 79.4512H17.7533ZM41.7616 71.4272L60.4918 47.5173H48.511L29.7808 71.4272H41.7616Z" fill="#F6F6F6"/>
</g>
<path d="M113.458 14.6692H118.584V40.851H113.178V23.5648L107.105 32.3161H102.773L96.631 23.8292V40.851H91.1777V14.6692H96.3507L104.957 26.7383L113.458 14.6692Z" fill="#FF914D"/>
<path d="M139.794 22.5308V40.8509H135.52L135.018 38.8914C134.323 39.8531 133.491 40.4962 132.519 40.8148C131.553 41.1334 130.546 41.2956 129.495 41.2956C128.225 41.2956 127.057 41.0432 125.991 40.5383C124.932 40.0334 124.006 39.3452 123.212 38.4707C122.424 37.5992 121.811 36.5774 121.367 35.4053C120.924 34.2363 120.702 32.9861 120.702 31.6548C120.702 30.3265 120.924 29.0763 121.367 27.9042C121.811 26.7352 122.424 25.7134 123.212 24.8389C124.006 23.9673 124.932 23.2761 125.991 22.7712C127.057 22.2664 128.225 22.0139 129.495 22.0139C130.639 22.0139 131.69 22.2002 132.647 22.5669C133.605 22.9365 134.393 23.5286 135.018 24.346L135.52 22.5308H139.794ZM134.843 31.7269C134.843 30.7652 134.714 29.9598 134.457 29.3107C134.206 28.6615 133.874 28.1326 133.453 27.7239C133.039 27.3152 132.548 27.0207 131.982 26.8343C131.421 26.651 130.817 26.5579 130.172 26.5579C129.524 26.5579 128.922 26.6961 128.362 26.9666C127.801 27.2401 127.302 27.6037 126.867 28.0605C126.438 28.5113 126.102 29.0522 125.863 29.6833C125.629 30.3084 125.513 30.9666 125.513 31.6548C125.513 32.37 125.629 33.0342 125.863 33.6503C126.102 34.2694 126.438 34.8043 126.867 35.2611C127.302 35.7119 127.801 36.0725 128.362 36.343C128.922 36.6165 129.524 36.7517 130.172 36.7517C131.462 36.7517 132.557 36.34 133.453 35.5135C134.355 34.6901 134.819 33.4279 134.843 31.7269Z" fill="#FF914D"/>
<path d="M147.143 25.0793C147.382 24.6887 147.659 24.316 147.972 23.9614C148.281 23.6008 148.652 23.2822 149.081 22.9997C149.507 22.7112 149.998 22.4828 150.552 22.3145C151.104 22.1402 151.726 22.05 152.421 22.05C153.229 22.05 154.172 22.2003 155.247 22.4948L154.779 27.0388C154.523 26.9907 154.26 26.9306 153.997 26.8585C153.778 26.8104 153.536 26.7683 153.273 26.7262C153.016 26.6872 152.777 26.6661 152.561 26.6661C151.796 26.6661 151.084 26.7803 150.424 27.0027C149.77 27.2281 149.201 27.5376 148.719 27.9283C148.243 28.322 147.861 28.7938 147.575 29.3468C147.286 29.8998 147.143 30.4978 147.143 31.1379V40.8509H142.191V22.5309H146.675L147.143 25.0793Z" fill="#FF914D"/>
<path d="M166.191 30.1401L173.687 40.8509H167.767L163.073 33.5421L161.31 35.5015V40.8509H156.358V13.8877H161.31V28.8539L167.09 22.5308H173.115L166.191 30.1401Z" fill="#FF914D"/>
<path d="M183.627 22.0139C184.964 22.0139 186.184 22.2964 187.282 22.8554C188.385 23.4084 189.331 24.1356 190.119 25.0312C190.904 25.9298 191.512 26.9636 191.941 28.1326C192.376 29.3047 192.595 30.5008 192.595 31.7269C192.595 32.4662 192.495 33.2536 192.303 34.095H179.61C180.083 34.9305 180.766 35.6398 181.653 36.2228C182.541 36.7998 183.498 37.0883 184.526 37.0883C185.553 37.0883 186.452 37.0041 187.223 36.8358C188 36.6615 188.741 36.4361 189.442 36.1627L191.088 39.3002C190.201 39.9433 189.188 40.4361 188.052 40.7787C186.914 41.1213 185.699 41.2956 184.409 41.2956C182.999 41.2956 181.682 41.0432 180.462 40.5383C179.248 40.0334 178.185 39.3542 177.274 38.4947C176.363 37.6292 175.642 36.6074 175.114 35.4294C174.591 34.2453 174.332 32.9861 174.332 31.6548C174.332 30.3505 174.568 29.1123 175.044 27.9403C175.526 26.7712 176.191 25.7495 177.041 24.8749C177.887 24.0034 178.874 23.3092 179.995 22.7953C181.122 22.2754 182.333 22.0139 183.627 22.0139ZM187.679 30.1401C187.39 29.0823 186.876 28.2228 186.137 27.5556C185.396 26.8914 184.561 26.5579 183.627 26.5579C182.669 26.5579 181.799 26.8914 181.023 27.5556C180.243 28.2228 179.709 29.0823 179.423 30.1401H187.679Z" fill="#FF914D"/>
<path d="M202.023 34.2754C202.023 35.1409 202.28 35.808 202.793 36.2708C203.313 36.7367 203.99 36.9681 204.825 36.9681C205.494 36.9681 206.162 36.8358 206.834 36.5714V40.8509C206.232 41.0492 205.599 41.2145 204.93 41.3437C204.259 41.479 203.59 41.5481 202.922 41.5481C202.157 41.5481 201.43 41.4459 200.738 41.2476C200.043 41.0552 199.422 40.7186 198.87 40.2378C198.315 39.7569 197.877 39.1198 197.55 38.3264C197.229 37.527 197.072 36.5323 197.072 35.3452V27.0748H194.526V23.6367L197.072 22.5308V18.4316H202.023V22.5308H206.834V27.0748H202.023V34.2754Z" fill="#FF914D"/>
<path d="M107.106 58.4031C108.11 59.1184 108.91 60.035 109.511 61.1559C110.11 62.2799 110.41 63.5181 110.41 64.8704C110.41 65.9523 110.206 66.9711 109.803 67.9238C109.397 68.8704 108.845 69.6969 108.145 70.4001C107.45 71.0973 106.644 71.6503 105.728 72.059C104.808 72.4617 103.824 72.6601 102.773 72.6601H91.2129V46.4783H102.411C103.369 46.4783 104.262 46.6706 105.097 47.0553C105.938 47.4339 106.674 47.9418 107.304 48.582C107.94 49.2251 108.44 49.9764 108.799 50.8419C109.155 51.7014 109.336 52.621 109.336 53.6067C109.336 54.6646 109.137 55.5962 108.74 56.3956C108.343 57.198 107.797 57.8682 107.106 58.4031ZM96.6661 56.2995H102.411C103.056 56.2995 103.605 56.068 104.058 55.6022C104.516 55.1304 104.747 54.5624 104.747 53.8952C104.747 53.2311 104.516 52.6781 104.058 52.2363C103.605 51.7976 103.056 51.5752 102.411 51.5752H96.6661V56.2995ZM102.773 67.5992C103.489 67.5992 104.096 67.2867 104.595 66.6616C105.1 66.0305 105.354 65.2972 105.354 64.4617C105.354 63.5962 105.1 62.872 104.595 62.2859C104.096 61.6939 103.489 61.3964 102.773 61.3964H96.6661V67.5992H102.773Z" fill="#F6F6F6"/>
<path d="M131.22 54.3401V72.6602H126.946L126.444 70.7008C125.749 71.6624 124.917 72.3056 123.945 72.6241C122.979 72.9427 121.972 73.105 120.921 73.105C119.651 73.105 118.483 72.8525 117.418 72.3476C116.358 71.8428 115.433 71.1546 114.639 70.28C113.85 69.4085 113.237 68.3867 112.794 67.2147C112.35 66.0456 112.128 64.7954 112.128 63.4641C112.128 62.1358 112.35 60.8856 112.794 59.7135C113.237 58.5445 113.85 57.5227 114.639 56.6482C115.433 55.7767 116.358 55.0855 117.418 54.5806C118.483 54.0757 119.651 53.8232 120.921 53.8232C122.065 53.8232 123.116 54.0096 124.074 54.3762C125.031 54.7459 125.819 55.3379 126.444 56.1553L126.946 54.3401H131.22ZM126.269 63.5362C126.269 62.5746 126.141 61.7691 125.884 61.12C125.633 60.4709 125.3 59.9419 124.879 59.5332C124.465 59.1245 123.974 58.83 123.408 58.6437C122.848 58.4604 122.243 58.3672 121.598 58.3672C120.95 58.3672 120.349 58.5054 119.788 58.7759C119.228 59.0494 118.728 59.413 118.293 59.8698C117.864 60.3206 117.529 60.8616 117.289 61.4927C117.056 62.1178 116.939 62.7759 116.939 63.4641C116.939 64.1794 117.056 64.8435 117.289 65.4596C117.529 66.0787 117.864 66.6136 118.293 67.0704C118.728 67.5212 119.228 67.8818 119.788 68.1523C120.349 68.4258 120.95 68.561 121.598 68.561C122.888 68.561 123.983 68.1493 124.879 67.3229C125.781 66.4994 126.246 65.2372 126.269 63.5362Z" fill="#F6F6F6"/>
<path d="M144.992 63.0553C146.305 64.017 146.965 65.3844 146.965 67.1545C146.965 67.9719 146.778 68.7382 146.405 69.4505C146.037 70.1657 145.532 70.7938 144.887 71.3378C144.239 71.8757 143.485 72.2995 142.621 72.612C141.763 72.9155 140.846 73.0688 139.865 73.0688C139.118 73.0688 138.388 72.9666 137.682 72.7683C136.981 72.5759 136.33 72.3085 135.732 71.9629C135.139 71.6203 134.622 71.2055 134.179 70.7247C133.735 70.2439 133.402 69.7089 133.186 69.1139C133.738 68.8434 134.348 68.5429 135.019 68.2123C135.688 67.8757 136.272 67.5752 136.771 67.3107C136.987 67.6804 137.323 68.017 137.775 68.3205C138.234 68.627 138.855 68.7773 139.644 68.7773C140.461 68.7773 141.059 68.582 141.442 68.1883C141.821 67.7976 142.014 67.4279 142.014 67.0823C142.014 66.8359 141.88 66.6075 141.617 66.3971C141.351 66.1898 141.051 66.0245 140.718 65.9043C140.242 65.7059 139.848 65.6007 139.538 65.5917C139.226 65.5767 138.867 65.5076 138.464 65.3874C137.171 65.0688 136.181 64.6421 135.498 64.1131C134.821 63.5842 134.325 63.0523 134.015 62.5143C133.703 61.9704 133.528 61.4535 133.49 60.9636C133.458 60.4678 133.443 60.0711 133.443 59.7735C133.443 58.9892 133.609 58.2409 133.945 57.5256C134.278 56.8044 134.739 56.1793 135.323 55.6503C135.907 55.1214 136.587 54.6977 137.366 54.3761C138.143 54.0575 138.978 53.8953 139.865 53.8953C140.604 53.8953 141.308 54.0095 141.979 54.2319C142.647 54.4572 143.255 54.7668 143.801 55.1575C144.352 55.5512 144.828 56.02 145.225 56.5639C145.622 57.1019 145.914 57.7029 146.101 58.3671L142.259 59.7014C142.119 59.2536 141.827 58.896 141.383 58.6315C140.94 58.3611 140.467 58.2228 139.97 58.2228C139.463 58.2228 139.054 58.3971 138.744 58.7397C138.432 59.0853 138.277 59.4309 138.277 59.7735C138.277 60.1913 138.423 60.5158 138.721 60.7473C139.025 60.9817 139.355 61.15 139.714 61.2521C139.976 61.3002 140.233 61.3453 140.484 61.3844C140.741 61.4174 140.986 61.4565 141.22 61.5046C142.061 61.7059 142.785 61.9313 143.392 62.1778C144.005 62.4182 144.539 62.7127 144.992 63.0553Z" fill="#F6F6F6"/>
<path d="M157.655 53.8232C158.992 53.8232 160.212 54.1057 161.31 54.6647C162.413 55.2177 163.359 55.945 164.147 56.8405C164.933 57.7391 165.54 58.7729 165.969 59.9419C166.404 61.114 166.623 62.3101 166.623 63.5362C166.623 64.2755 166.524 65.0629 166.331 65.9044H153.638C154.111 66.7398 154.794 67.4491 155.681 68.0321C156.569 68.6091 157.526 68.8976 158.554 68.8976C159.582 68.8976 160.481 68.8135 161.251 68.6452C162.028 68.4709 162.77 68.2455 163.47 67.972L165.117 71.1095C164.229 71.7526 163.216 72.2455 162.081 72.5881C160.942 72.9307 159.728 73.105 158.437 73.105C157.027 73.105 155.711 72.8525 154.49 72.3476C153.276 71.8428 152.213 71.1636 151.303 70.3041C150.392 69.4386 149.671 68.4168 149.142 67.2387C148.62 66.0546 148.36 64.7954 148.36 63.4641C148.36 62.1598 148.596 60.9217 149.072 59.7496C149.554 58.5806 150.219 57.5588 151.069 56.6842C151.916 55.8127 152.902 55.1185 154.023 54.6046C155.15 54.0847 156.362 53.8232 157.655 53.8232ZM161.707 61.9495C161.418 60.8916 160.904 60.0321 160.166 59.3649C159.424 58.7008 158.589 58.3672 157.655 58.3672C156.697 58.3672 155.827 58.7008 155.051 59.3649C154.271 60.0321 153.737 60.8916 153.451 61.9495H161.707Z" fill="#F6F6F6"/>
</svg>
