<svg width="30" height="30" viewBox="0 0 30 30" fill="none" xmlns="http://www.w3.org/2000/svg">
<path d="M21.25 3.03711H8.75C5 3.03711 2.5 5.53711 2.5 9.28711V16.7871C2.5 20.5371 5 23.0371 8.75 23.0371H13.75L19.3125 26.7371C20.1375 27.2871 21.25 26.6996 21.25 25.6996V23.0371C25 23.0371 27.5 20.5371 27.5 16.7871V9.28711C27.5 5.53711 25 3.03711 21.25 3.03711ZM19.375 14.0621H10.625C10.1125 14.0621 9.6875 13.6371 9.6875 13.1246C9.6875 12.6121 10.1125 12.1871 10.625 12.1871H19.375C19.8875 12.1871 20.3125 12.6121 20.3125 13.1246C20.3125 13.6371 19.8875 14.0621 19.375 14.0621Z" fill="white"/>
</svg>
