<svg width="18" height="19" viewBox="0 0 18 19" fill="none" xmlns="http://www.w3.org/2000/svg">
<path d="M-0.000195313 5.10566C-0.000195313 5.83848 0.268555 6.64395 0.609961 7.49863C0.951367 8.35332 1.39121 9.15879 1.7334 9.76894C2.66152 11.3807 3.85762 12.9674 5.2248 14.2854C6.59199 15.6033 8.20371 16.7025 10.01 17.3619C11.06 17.7768 12.11 18.2408 13.2818 18.2408C13.8678 18.2408 14.6982 18.0213 15.4545 17.7033C16.1873 17.3861 16.8459 16.8979 17.0904 16.3119C17.1881 16.0924 17.31 15.7994 17.3834 15.4572C17.4568 15.14 17.5053 14.8221 17.5053 14.6025C17.5053 14.4807 17.5053 14.358 17.4811 14.3338C17.4076 14.1869 17.2365 14.065 17.0412 13.9432C16.6014 13.7236 16.5287 13.6502 15.8693 13.2596C15.1857 12.8689 14.4779 12.4291 13.867 12.1119C13.574 11.9408 13.3787 11.8674 13.3053 11.8674C12.9146 11.8674 12.4264 12.4049 12.0115 12.9908C11.5717 13.5768 11.0834 14.1143 10.742 14.1143C10.5709 14.1143 10.3998 14.0408 10.2045 13.9189C10.0092 13.7971 9.81387 13.6994 9.69199 13.626C7.54355 12.4049 6.10293 10.965 4.88262 8.84082C4.73574 8.59629 4.39434 8.08379 4.39434 7.81504C4.39434 7.49785 4.83418 7.13145 5.27324 6.74082C5.68809 6.37441 6.12793 5.93535 6.12793 5.39785C6.12793 5.32441 6.07871 5.10488 5.98105 4.7877C5.76152 4.15254 5.46855 3.42051 5.22402 2.7127C5.10215 2.37051 5.00449 2.12676 4.97949 2.00488C4.93027 1.93145 4.90605 1.83379 4.88184 1.71191C4.85762 1.59004 4.8084 1.49238 4.78418 1.39473C4.71074 1.1752 4.58887 1.0041 4.46699 0.906445C4.34512 0.857226 4.05215 0.78457 3.75918 0.75957C3.46621 0.75957 3.12402 0.735352 2.97793 0.735352C2.90449 0.735352 2.80684 0.735351 2.70918 0.75957H2.39199C1.61074 1.10176 1.04902 1.78535 0.63418 2.59082C0.243555 3.39629 -0.000976562 4.3002 -0.000976562 5.10566H-0.000195313Z" fill="white"/>
</svg>
