<svg width="45" height="45" viewBox="0 0 45 45" fill="none" xmlns="http://www.w3.org/2000/svg">
<path d="M18 6.225C16.5678 6.225 15.1677 6.64995 13.9771 7.44605C12.7865 8.24215 11.8589 9.3736 11.3116 10.6972C10.7644 12.0208 10.6222 13.4769 10.903 14.8814C11.1838 16.2858 11.8749 17.5754 12.889 18.5868C13.903 19.5983 15.1944 20.2861 16.5996 20.5632C18.0047 20.8404 19.4605 20.6943 20.7827 20.1437C22.1048 19.593 23.2339 18.6625 24.0269 17.4698C24.8199 16.2771 25.2412 14.876 25.2375 13.4438C25.2375 12.4942 25.0502 11.554 24.6862 10.6769C24.3223 9.79987 23.7889 9.00325 23.1166 8.33268C22.4442 7.66211 21.6462 7.13078 20.7683 6.7691C19.8903 6.40743 18.9496 6.22253 18 6.225ZM30.6563 20.625C30.5449 20.6272 30.4376 20.6675 30.3524 20.7391C30.2671 20.8108 30.2089 20.9094 30.1875 21.0188L29.85 23.4C29.3103 23.6286 28.7952 23.9113 28.3125 24.2438L26.0625 23.3438C25.9552 23.3256 25.845 23.339 25.7451 23.3823C25.6453 23.4255 25.5601 23.4968 25.5 23.5875L23.625 26.7C23.5703 26.7941 23.5515 26.9049 23.5722 27.0117C23.5929 27.1186 23.6516 27.2144 23.7375 27.2813L25.6125 28.7625C25.5329 29.385 25.5329 30.015 25.6125 30.6375L23.7375 32.1187C23.653 32.1824 23.5949 32.2749 23.5742 32.3786C23.5534 32.4823 23.5715 32.59 23.625 32.6813L25.5 35.8125C25.6125 36.0563 25.8563 36.0562 26.0625 36.0562L28.3125 35.1375C28.7878 35.4867 29.3042 35.7764 29.85 36L30.1875 38.3813C30.2058 38.4905 30.2637 38.5891 30.3502 38.6583C30.4367 38.7275 30.5457 38.7624 30.6563 38.7563H34.275C34.3792 38.7534 34.4791 38.7144 34.5578 38.646C34.6364 38.5776 34.6889 38.484 34.7063 38.3813L35.0438 36C35.5757 35.7604 36.0842 35.4716 36.5625 35.1375L38.7938 36.0562C39.0188 36.0562 39.2625 36.0563 39.3938 35.8125L41.2688 32.6813C41.3222 32.59 41.3403 32.4823 41.3196 32.3786C41.2988 32.2749 41.2407 32.1824 41.1563 32.1187L39.2813 30.6375C39.3 30.3315 39.3 30.0247 39.2813 29.7188C39.3083 29.4194 39.3083 29.1181 39.2813 28.8188L41.1563 27.3375C41.239 27.2683 41.2954 27.1728 41.3159 27.0669C41.3364 26.961 41.3197 26.8513 41.2688 26.7563L39.3938 23.6437C39.2813 23.4 39.0375 23.4 38.8125 23.4L36.5625 24.375C36.0841 24.0356 35.5682 23.7525 35.025 23.5312L34.6875 21.15C34.6785 21.0454 34.6316 20.9477 34.5556 20.8752C34.4797 20.8027 34.3799 20.7604 34.275 20.7563H30.8625M18.2063 24.375C10.2188 24.375 3.75 27.5625 3.75 31.5563V35.1563H21.2438C20.4545 33.4887 20.0451 31.6668 20.0451 29.8219C20.0451 27.977 20.4545 26.155 21.2438 24.4875C20.2344 24.3895 19.2201 24.3519 18.2063 24.375ZM32.4563 27.0563C32.831 27.025 33.2081 27.0719 33.5638 27.1939C33.9196 27.3159 34.2461 27.5104 34.5228 27.765C34.7995 28.0196 35.0204 28.3289 35.1715 28.6733C35.3226 29.0176 35.4006 29.3896 35.4006 29.7656C35.4006 30.1417 35.3226 30.5136 35.1715 30.858C35.0204 31.2023 34.7995 31.5116 34.5228 31.7662C34.2461 32.0209 33.9196 32.2153 33.5638 32.3373C33.2081 32.4593 32.831 32.5062 32.4563 32.475C31.7766 32.4184 31.143 32.1084 30.6812 31.6066C30.2194 31.1047 29.9631 30.4476 29.9631 29.7656C29.9631 29.0836 30.2194 28.4265 30.6812 27.9247C31.143 27.4228 31.7766 27.1128 32.4563 27.0563Z" fill="white"/>
</svg>
