<svg width="30" height="30" viewBox="0 0 30 30" fill="none" xmlns="http://www.w3.org/2000/svg">
<g clip-path="url(#clip0_9_966)">
<path fill-rule="evenodd" clip-rule="evenodd" d="M22.5506 18.6L30 26.1562L26.25 30L18.6094 22.545C16.6823 23.7442 14.4572 24.3783 12.1875 24.375C5.45625 24.375 0 18.9056 0 12.1875C0 5.45625 5.46938 0 12.1875 0C18.9188 0 24.375 5.46938 24.375 12.1875C24.3784 14.4535 23.7463 16.6751 22.5506 18.6ZM3.74437 12.0975C3.74437 16.7475 7.52063 20.535 12.1819 20.535C16.8319 20.535 20.6194 16.7569 20.6194 12.0975C20.6194 7.4475 16.8412 3.66 12.1819 3.66C7.53188 3.66 3.74437 7.43625 3.74437 12.0975Z" fill="#FEFEFE"/>
</g>
<defs>
<clipPath id="clip0_9_966">
<rect width="30" height="30" fill="white"/>
</clipPath>
</defs>
</svg>
