<svg width="45" height="45" viewBox="0 0 45 45" fill="none" xmlns="http://www.w3.org/2000/svg">
<g clip-path="url(#clip0_1_441)">
<path fill-rule="evenodd" clip-rule="evenodd" d="M33.75 3.75C36.8567 3.75 39.375 6.26841 39.375 9.375V33.75C39.375 36.8567 36.8567 39.375 33.75 39.375H28.125V28.125C28.125 25.0183 25.6067 22.5 22.5 22.5H20.625C17.5184 22.5 15 25.0183 15 28.125V39.375H9.375C6.26841 39.375 3.75 36.8567 3.75 33.75V9.375C3.75 6.26841 6.26841 3.75 9.375 3.75H33.75ZM22.5 26.25C23.4616 26.25 24.2541 26.9738 24.3624 27.9063L24.375 28.125V39.375H18.75V28.125C18.75 27.1634 19.4738 26.3709 20.4063 26.2626L20.625 26.25H22.5ZM33.75 7.5H9.375C8.41344 7.5 7.62092 8.22383 7.51261 9.15634L7.5 9.375V11.25C7.5 13.3211 9.17893 15 11.25 15C13.0031 15 14.4782 13.7953 14.8871 12.1686L14.9481 11.8773C15.0924 11.0169 15.8014 10.3923 16.6318 10.3193L16.875 10.3125C17.8366 10.3125 18.6291 11.0363 18.7374 11.9688L18.75 12.1875C18.75 13.7408 20.0093 15 21.5625 15C23.0244 15 24.2258 13.8846 24.3621 12.4584L24.375 12.1875C24.375 11.2259 25.0988 10.4334 26.0313 10.3251L26.2832 10.3128C27.1309 10.2916 27.894 10.8484 28.1293 11.6673L28.1769 11.8773C28.4743 13.6494 30.0187 15 31.875 15C33.852 15 35.4716 13.4702 35.6147 11.5299L35.625 11.25V9.375C35.625 8.41344 34.9012 7.62092 33.9687 7.51261L33.75 7.5Z" fill="white"/>
</g>
<defs>
<clipPath id="clip0_1_441">
<rect width="45" height="45" fill="white"/>
</clipPath>
</defs>
</svg>
