<svg width="30" height="30" viewBox="0 0 30 30" fill="none" xmlns="http://www.w3.org/2000/svg">
<path d="M5.6325 27.4245L3 9H27L24.3675 27.4245C24.2653 28.1394 23.9087 28.7934 23.3631 29.2665C22.8176 29.7396 22.1196 30 21.3975 30H8.6025C7.88036 30 7.18244 29.7396 6.63687 29.2665C6.0913 28.7934 5.73468 28.1394 5.6325 27.4245ZM28.5 3H21V1.5C21 1.10218 20.842 0.720644 20.5607 0.43934C20.2794 0.158035 19.8978 0 19.5 0H10.5C10.1022 0 9.72064 0.158035 9.43934 0.43934C9.15804 0.720644 9 1.10218 9 1.5V3H1.5C1.10218 3 0.720644 3.15804 0.43934 3.43934C0.158035 3.72064 0 4.10218 0 4.5C0 4.89782 0.158035 5.27936 0.43934 5.56066C0.720644 5.84196 1.10218 6 1.5 6H28.5C28.8978 6 29.2794 5.84196 29.5607 5.56066C29.842 5.27936 30 4.89782 30 4.5C30 4.10218 29.842 3.72064 29.5607 3.43934C29.2794 3.15804 28.8978 3 28.5 3Z" fill="white"/>
</svg>
